<?xml version="1.0" standalone="no"?>
<!DOCTYPE svg PUBLIC "-//W3C//DTD SVG 20010904//EN"
 "http://www.w3.org/TR/2001/REC-SVG-20010904/DTD/svg10.dtd">
<svg version="1.0" xmlns="http://www.w3.org/2000/svg"
 width="300.000000pt" height="300.000000pt" viewBox="0 0 300.000000 300.000000"
 preserveAspectRatio="xMidYMid meet">
<metadata>
Created by potrace 1.11, written by Peter Selinger 2001-2013
</metadata>
<g transform="translate(0.000000,300.000000) scale(0.100000,-0.100000)"
fill="#000000" stroke="none">
<path d="M1320 2970 c0 -5 9 -10 20 -10 16 0 20 -7 20 -35 0 -19 5 -35 10 -35
6 0 10 16 10 35 0 31 3 35 25 35 14 0 25 5 25 10 0 6 -25 10 -55 10 -30 0 -55
-4 -55 -10z"/>
<path d="M1458 2974 c-12 -11 -10 -84 2 -84 6 0 10 9 10 20 0 16 7 20 35 20
28 0 35 -4 35 -20 0 -11 5 -20 10 -20 6 0 10 20 10 45 0 25 -4 45 -10 45 -5 0
-10 -7 -10 -15 0 -22 -67 -21 -72 1 -2 9 -6 12 -10 8z"/>
<path d="M1610 2935 l0 -45 50 0 c28 0 50 5 50 10 0 6 -18 10 -40 10 -22 0
-40 5 -40 10 0 6 9 10 20 10 27 0 25 18 -2 23 -14 3 -9 5 15 6 53 2 46 21 -8
21 l-45 0 0 -45z"/>
<path d="M1467 2819 c-9 -6 -14 -15 -11 -21 4 -6 2 -13 -4 -17 -8 -5 -9 -18
-1 -45 9 -33 8 -40 -9 -52 -13 -9 -18 -21 -15 -35 3 -11 1 -30 -6 -42 -6 -12
-12 -65 -13 -117 l-3 -94 -33 -7 c-40 -8 -47 2 -27 41 14 27 14 33 0 67 -22
53 -52 74 -83 60 -29 -13 -42 2 -42 51 0 18 -5 43 -11 55 -10 18 -8 24 16 43
l28 22 -24 4 c-19 2 -23 8 -21 27 3 34 -15 53 -39 40 -11 -5 -17 -15 -13 -21
4 -5 2 -13 -4 -17 -8 -5 -9 -18 -1 -45 9 -32 8 -40 -7 -51 -14 -10 -18 -24
-15 -56 l3 -42 -32 26 c-64 54 -132 22 -146 -69 l-7 -49 -14 33 c-16 39 -34
37 -47 -4 -24 -82 -23 -81 -61 -37 -53 62 -113 63 -139 1 -12 -26 -12 -39 -1
-75 7 -24 10 -43 5 -43 -17 0 -30 30 -42 98 -10 61 -10 74 3 89 26 30 58 91
51 97 -3 3 -14 -1 -24 -11 -25 -22 -34 -9 -14 21 20 31 20 36 1 36 -8 0 -15
-4 -15 -8 0 -5 -16 -16 -35 -25 -38 -18 -39 -20 -35 -124 1 -40 -2 -73 -7 -73
-4 0 -32 21 -61 46 l-53 47 20 21 c13 14 18 29 14 44 -6 26 -16 28 -33 7 -7
-8 -19 -15 -28 -15 -8 0 -44 -13 -79 -30 -34 -16 -72 -30 -83 -30 -20 0 -20
-7 -20 -935 l0 -935 1250 0 1250 0 0 1000 c0 550 -2 1000 -4 1000 -3 0 -16 -4
-31 -10 -37 -14 -55 -63 -45 -123 l7 -49 -88 93 c-79 83 -88 97 -94 141 -7 52
-25 76 -25 34 0 -16 -6 -26 -15 -26 -24 0 -18 -21 24 -83 22 -33 37 -66 34
-76 -4 -17 21 -64 66 -123 12 -14 21 -28 21 -30 0 -2 -21 -2 -46 0 -35 3 -44
7 -40 19 10 26 -13 91 -40 112 -19 15 -34 19 -57 14 -43 -8 -65 -29 -77 -75
-10 -35 -8 -42 21 -84 17 -25 37 -48 45 -51 13 -5 21 -33 9 -33 -2 0 -21 12
-42 26 -21 14 -51 28 -66 31 -35 7 -45 29 -25 50 12 11 13 24 8 50 -16 67 -63
93 -97 53 -10 -11 -21 -20 -26 -20 -5 0 -7 41 -5 92 4 91 4 91 41 122 44 37
46 49 10 65 -35 16 -44 5 -78 -84 -14 -38 -32 -76 -40 -85 -7 -8 -21 -44 -30
-80 -9 -36 -22 -87 -29 -113 -12 -50 -39 -78 -58 -59 -6 6 -4 20 6 41 15 28
15 34 1 68 -22 53 -52 74 -83 60 -29 -13 -42 2 -42 51 0 18 -5 43 -11 55 -10
18 -8 24 16 43 l28 22 -24 4 c-19 2 -23 8 -21 27 3 34 -15 53 -39 40 -11 -5
-17 -15 -13 -21 4 -5 2 -13 -4 -17 -8 -5 -9 -18 -1 -45 9 -34 8 -40 -10 -53
-19 -13 -21 -24 -21 -123 l0 -108 -61 -4 c-34 -1 -63 0 -65 4 -3 4 2 21 11 38
14 27 14 33 0 67 -22 53 -52 74 -83 60 -29 -13 -42 2 -42 51 0 18 -5 43 -11
55 -10 18 -8 24 16 43 l28 22 -24 4 c-19 2 -23 8 -21 29 3 33 -17 51 -41 38z
m-1037 -279 c8 -5 12 -12 8 -15 -9 -9 -48 4 -48 16 0 12 21 11 40 -1z m689
-166 c-8 -10 -16 -11 -31 -3 -18 9 -18 12 -5 27 8 9 21 37 29 62 l13 45 3 -58
c2 -34 -2 -65 -9 -73z m-819 76 c0 -16 -23 -60 -32 -60 -12 0 -10 44 4 58 14
14 28 16 28 2z m650 -49 c-12 -23 -30 -28 -30 -8 0 7 8 24 17 37 15 21 18 22
21 8 2 -9 -2 -26 -8 -37z m-67 -51 c9 -13 17 -35 17 -47 0 -23 -1 -23 -27 -8
-59 31 -64 40 -57 85 l7 42 21 -24 c12 -12 29 -34 39 -48z m-383 14 c0 -8 -4
-14 -10 -14 -5 0 -10 4 -10 9 0 5 -3 18 -7 28 -6 16 -5 16 10 4 9 -7 17 -20
17 -27z m1004 -114 c17 -17 21 -35 23 -122 4 -123 5 -128 37 -128 25 0 36 16
36 53 0 32 165 187 199 187 34 0 48 -10 60 -42 13 -35 -14 -71 -148 -201 -55
-54 -101 -105 -101 -114 0 -9 61 -78 135 -154 92 -94 135 -145 135 -160 0 -29
-37 -69 -64 -69 -30 0 -203 170 -211 206 -11 50 -14 54 -38 54 -42 0 -47 -16
-47 -152 l0 -128 39 -24 c49 -31 70 -60 77 -107 6 -34 10 -37 45 -43 80 -13
149 -117 133 -201 -13 -71 -87 -145 -145 -145 -25 0 -29 -4 -29 -26 0 -76 -94
-154 -184 -154 -79 0 -174 67 -177 123 -1 12 -2 29 -3 37 0 9 -15 17 -36 20
-68 12 -115 57 -140 134 -28 89 56 216 144 216 19 0 26 5 26 20 0 31 22 72 62
117 l37 42 1 370 c0 203 3 377 6 386 15 37 93 40 128 5z"/>
<path d="M1435 1320 c-34 -13 -48 -37 -42 -74 7 -43 -6 -55 -52 -49 -64 9
-102 -52 -66 -104 12 -17 27 -23 68 -25 l52 -3 -3 -41 c-3 -35 1 -45 24 -63
33 -26 55 -27 85 -2 19 15 24 29 24 63 l0 43 42 1 c54 1 83 26 83 70 0 40 -34
67 -77 63 -41 -5 -52 6 -46 44 8 53 -44 97 -92 77z"/>
<path d="M310 335 l0 -185 1200 0 1200 0 0 185 0 185 -1200 0 -1200 0 0 -185z
m200 45 c0 -5 -22 -10 -50 -10 -38 0 -50 -4 -50 -15 0 -9 9 -15 25 -15 14 0
25 -4 25 -10 0 -5 -11 -10 -25 -10 -16 0 -25 -6 -25 -15 0 -11 12 -15 50 -15
28 0 50 -4 50 -10 0 -6 -30 -10 -70 -10 l-70 0 0 60 0 60 70 0 c40 0 70 -4 70
-10z m111 -26 l49 -36 0 36 c0 29 4 36 20 36 18 0 20 -7 20 -60 0 -73 -12 -77
-76 -24 l-44 35 0 -35 c0 -29 -4 -36 -20 -36 -18 0 -20 7 -20 60 0 37 4 60 11
60 6 0 33 -16 60 -36z m259 26 c0 -5 -11 -10 -25 -10 -23 0 -25 -3 -25 -50 0
-43 -3 -50 -20 -50 -17 0 -20 7 -20 50 0 47 -2 50 -25 50 -14 0 -25 5 -25 10
0 6 30 10 70 10 40 0 70 -4 70 -10z m170 0 c0 -5 -22 -10 -50 -10 -38 0 -50
-4 -50 -15 0 -9 9 -15 25 -15 14 0 25 -4 25 -10 0 -5 -11 -10 -25 -10 -16 0
-25 -6 -25 -15 0 -11 12 -15 50 -15 28 0 50 -4 50 -10 0 -6 -30 -10 -70 -10
l-70 0 0 60 0 60 70 0 c40 0 70 -4 70 -10z m178 -32 c3 -31 0 -38 -15 -38 -15
0 -14 -4 7 -20 l25 -20 -25 0 c-14 0 -36 9 -50 20 -32 25 -40 25 -40 0 0 -13
-7 -20 -20 -20 -18 0 -20 7 -20 60 l0 61 68 -3 67 -3 3 -37z m172 32 c0 -5
-11 -10 -25 -10 -23 0 -25 -3 -25 -50 0 -43 -3 -50 -20 -50 -17 0 -20 7 -20
50 0 47 -2 50 -25 50 -14 0 -25 5 -25 10 0 6 30 10 70 10 40 0 70 -4 70 -10z
m133 -50 c33 -55 34 -60 16 -60 -11 0 -22 7 -25 15 -4 10 -20 15 -44 15 -24 0
-40 -5 -44 -15 -3 -8 -13 -15 -21 -15 -13 0 -10 12 17 60 19 36 39 60 49 60
10 0 32 -25 52 -60z m107 0 c0 -53 -2 -60 -20 -60 -18 0 -20 7 -20 60 0 53 2
60 20 60 18 0 20 -7 20 -60z m121 24 l49 -36 0 36 c0 29 4 36 20 36 18 0 20
-7 20 -60 0 -73 -12 -77 -76 -24 l-44 35 0 -35 c0 -29 -4 -36 -20 -36 -18 0
-20 7 -20 60 0 37 4 60 11 60 6 0 33 -16 60 -36z m201 0 l26 -36 27 36 c41 54
55 48 55 -24 0 -47 -3 -60 -15 -60 -11 0 -15 11 -15 38 l0 37 -21 -32 c-26
-40 -33 -41 -64 -5 l-24 27 -1 -32 c0 -23 -5 -33 -15 -33 -12 0 -15 13 -15 60
0 52 3 60 18 60 11 0 30 -16 44 -36z m298 26 c0 -5 -22 -10 -50 -10 -38 0 -50
-4 -50 -15 0 -9 9 -15 25 -15 14 0 25 -4 25 -10 0 -5 -11 -10 -25 -10 -16 0
-25 -6 -25 -15 0 -11 12 -15 50 -15 28 0 50 -4 50 -10 0 -6 -30 -10 -70 -10
l-70 0 0 60 0 60 70 0 c40 0 70 -4 70 -10z m110 -26 l45 -36 3 36 c3 28 8 36
23 36 17 0 19 -7 19 -60 0 -73 -12 -77 -76 -24 l-44 35 0 -35 c0 -29 -4 -36
-20 -36 -18 0 -20 7 -20 60 0 72 7 74 70 24z m260 26 c0 -5 -11 -10 -25 -10
-23 0 -25 -3 -25 -50 0 -43 -3 -50 -20 -50 -17 0 -20 7 -20 50 0 47 -2 50 -25
50 -14 0 -25 5 -25 10 0 6 30 10 70 10 40 0 70 -4 70 -10z"/>
<path d="M1130 350 c0 -16 7 -20 35 -20 28 0 35 4 35 20 0 16 -7 20 -35 20
-28 0 -35 -4 -35 -20z"/>
<path d="M1466 335 c-4 -10 1 -15 14 -15 13 0 18 5 14 15 -4 8 -10 15 -14 15
-4 0 -10 -7 -14 -15z"/>
</g>
</svg>
